<svg width="89" height="25" viewBox="0 0 89 25" fill="none" xmlns="http://www.w3.org/2000/svg">
<mask id="mask0_5_129" style="mask-type:alpha" maskUnits="userSpaceOnUse" x="0" y="0" width="89" height="25">
<path fill-rule="evenodd" clip-rule="evenodd" d="M0 4C0 1.79086 1.79086 0 4 0H85C87.2091 0 89 1.79086 89 4V21C89 23.2091 87.2091 25 85 25H4C1.79086 25 0 23.2091 0 21V4Z" fill="white"/>
</mask>
<g mask="url(#mask0_5_129)">
<rect opacity="0.3" x="-1" width="90" height="25" fill="black"/>
<path d="M18.0661 14.66V12.92H18.5861C18.7594 12.92 18.9127 12.9933 19.0461 13.14C19.1794 13.2867 19.2461 13.5 19.2461 13.78C19.2461 14.08 19.1794 14.3033 19.0461 14.45C18.9127 14.59 18.7594 14.66 18.5861 14.66H18.0661ZM18.0661 11.66V10.2H18.5161C18.7094 10.2 18.8561 10.2733 18.9561 10.42C19.0561 10.5667 19.1061 10.74 19.1061 10.94C19.1061 11.1333 19.0561 11.3033 18.9561 11.45C18.8561 11.59 18.7094 11.66 18.5161 11.66H18.0661ZM16.2061 8.86V16H19.0161C19.4027 16 19.7327 15.95 20.0061 15.85C20.2794 15.7433 20.4994 15.5967 20.6661 15.41C20.8394 15.2233 20.9661 15 21.0461 14.74C21.1261 14.48 21.1661 14.1967 21.1661 13.89C21.1661 13.7033 21.1394 13.52 21.0861 13.34C21.0394 13.1533 20.9627 12.9833 20.8561 12.83C20.7494 12.6767 20.6127 12.55 20.4461 12.45C20.2794 12.3433 20.0794 12.28 19.8461 12.26V12.24C20.0461 12.2 20.2161 12.13 20.3561 12.03C20.4961 11.93 20.6094 11.81 20.6961 11.67C20.7894 11.5233 20.8561 11.3633 20.8961 11.19C20.9427 11.01 20.9661 10.8267 20.9661 10.64C20.9661 10.1 20.8061 9.67 20.4861 9.35C20.1727 9.02333 19.6827 8.86 19.0161 8.86H16.2061ZM24.9982 11.88V10.2H25.3582C25.6382 10.2 25.8382 10.2633 25.9582 10.39C26.0849 10.5167 26.1482 10.73 26.1482 11.03C26.1482 11.2833 26.0849 11.49 25.9582 11.65C25.8316 11.8033 25.6349 11.88 25.3682 11.88H24.9982ZM23.1382 8.86V16H24.9982V13.14H25.4882C25.6016 13.14 25.6949 13.1567 25.7682 13.19C25.8482 13.2167 25.9116 13.27 25.9582 13.35C26.0116 13.4233 26.0482 13.5267 26.0682 13.66C26.0882 13.7933 26.0982 13.96 26.0982 14.16V14.64C26.0982 14.7133 26.0982 14.81 26.0982 14.93C26.1049 15.0433 26.1116 15.1633 26.1182 15.29C26.1316 15.4167 26.1482 15.5433 26.1682 15.67C26.1949 15.7967 26.2316 15.9067 26.2782 16H28.2582V15.9C28.1982 15.8667 28.1549 15.8333 28.1282 15.8C28.1016 15.76 28.0749 15.72 28.0482 15.68C28.0282 15.64 28.0116 15.5833 27.9982 15.51C27.9849 15.4367 27.9749 15.3567 27.9682 15.27C27.9616 15.1767 27.9582 15.08 27.9582 14.98C27.9582 14.88 27.9582 14.7833 27.9582 14.69V14.08C27.9582 13.6 27.8749 13.2233 27.7082 12.95C27.5416 12.6767 27.2349 12.52 26.7882 12.48V12.46C27.2149 12.3933 27.5249 12.2133 27.7182 11.92C27.9116 11.6267 28.0082 11.24 28.0082 10.76C28.0082 10.4867 27.9716 10.2333 27.8982 10C27.8316 9.76667 27.7182 9.56667 27.5582 9.4C27.4049 9.22667 27.2016 9.09333 26.9482 9C26.7016 8.90667 26.4016 8.86 26.0482 8.86H23.1382ZM30.1304 8.86V16H34.4504V14.48H31.9904V13.06H34.2104V11.6H31.9904V10.38H34.3604V8.86H30.1304ZM38.7104 10.32L38.2004 13.35H39.2404L38.7304 10.32H38.7104ZM39.8904 8.86L41.6304 16H39.6504L39.4604 14.75H37.9804L37.7904 16H35.8404L37.5504 8.86H39.8904ZM43.1171 8.86V16H44.9771V14.11L45.3671 13.51L46.4571 16H48.5771L46.5571 11.98L48.3571 8.86H46.3771L44.9971 11.6H44.9771V8.86H43.1171ZM49.9937 8.86V16H51.8537V13.06H54.0737V11.6H51.8537V10.38H54.2237V8.86H49.9937ZM58.0171 10.32L57.5071 13.35H58.5471L58.0371 10.32H58.0171ZM59.1971 8.86L60.9371 16H58.9571L58.7671 14.75H57.2871L57.0971 16H55.1471L56.8571 8.86H59.1971ZM65.2737 10.92H67.0137C67.0137 10.1533 66.8304 9.59667 66.4637 9.25C66.1037 8.89667 65.517 8.72 64.7037 8.72C63.917 8.72 63.3304 8.91 62.9437 9.29C62.557 9.67 62.3637 10.2233 62.3637 10.95C62.3637 11.37 62.4337 11.71 62.5737 11.97C62.7204 12.23 62.9004 12.44 63.1137 12.6C63.3337 12.76 63.5704 12.89 63.8237 12.99C64.077 13.09 64.3104 13.19 64.5237 13.29C64.7437 13.3833 64.9237 13.5 65.0637 13.64C65.2104 13.7733 65.2837 13.9567 65.2837 14.19C65.2837 14.3833 65.2304 14.5467 65.1237 14.68C65.0237 14.8133 64.877 14.88 64.6837 14.88C64.5037 14.88 64.357 14.82 64.2437 14.7C64.1304 14.5733 64.0737 14.3567 64.0737 14.05V13.88H62.2737V14.13C62.2737 14.5033 62.327 14.8167 62.4337 15.07C62.5404 15.3233 62.6937 15.53 62.8937 15.69C63.1004 15.8433 63.3504 15.95 63.6437 16.01C63.9437 16.0767 64.287 16.11 64.6737 16.11C65.4937 16.11 66.1204 15.94 66.5537 15.6C66.987 15.2533 67.2037 14.7 67.2037 13.94C67.2037 13.5067 67.127 13.1567 66.9737 12.89C66.827 12.6167 66.6404 12.3967 66.4137 12.23C66.187 12.0633 65.9437 11.93 65.6837 11.83C65.4237 11.7233 65.1804 11.62 64.9537 11.52C64.727 11.42 64.537 11.3033 64.3837 11.17C64.237 11.03 64.1637 10.8433 64.1637 10.61C64.1637 10.45 64.2104 10.3067 64.3037 10.18C64.397 10.0467 64.5437 9.98 64.7437 9.98C64.9237 9.98 65.057 10.0567 65.1437 10.21C65.2304 10.3567 65.2737 10.5367 65.2737 10.75V10.92ZM70.0548 10.44V16H71.9148V10.44H73.3148V8.86H68.6748V10.44H70.0548Z" fill="white"/>
</g>
</svg>
