<svg width="65" height="25" viewBox="0 0 65 25" fill="none" xmlns="http://www.w3.org/2000/svg">
<mask id="mask0_2_154" style="mask-type:alpha" maskUnits="userSpaceOnUse" x="0" y="0" width="65" height="25">
<path fill-rule="evenodd" clip-rule="evenodd" d="M0 4C0 1.79086 1.79086 0 4 0H61C63.2091 0 65 1.79086 65 4V21C65 23.2091 63.2091 25 61 25H4C1.79086 25 0 23.2091 0 21V4Z" fill="white"/>
</mask>
<g mask="url(#mask0_2_154)">
<rect opacity="0.3" width="65" height="25" fill="black"/>
<path d="M14.9469 8.86V16H17.6469C18.1869 16 18.6069 15.9033 18.9069 15.71C19.2069 15.51 19.4303 15.2467 19.5769 14.92C19.7303 14.5867 19.8236 14.2067 19.8569 13.78C19.8903 13.3467 19.9069 12.8967 19.9069 12.43C19.9069 11.9633 19.8903 11.5167 19.8569 11.09C19.8236 10.6567 19.7303 10.2767 19.5769 9.95C19.4303 9.61667 19.2069 9.35333 18.9069 9.16C18.6069 8.96 18.1869 8.86 17.6469 8.86H14.9469ZM16.8069 14.66V10.2H17.1769C17.3569 10.2 17.5003 10.2267 17.6069 10.28C17.7136 10.3267 17.7936 10.43 17.8469 10.59C17.9069 10.75 17.9436 10.9767 17.9569 11.27C17.9769 11.5633 17.9869 11.95 17.9869 12.43C17.9869 12.91 17.9769 13.2967 17.9569 13.59C17.9436 13.8833 17.9069 14.11 17.8469 14.27C17.7936 14.43 17.7136 14.5367 17.6069 14.59C17.5003 14.6367 17.3569 14.66 17.1769 14.66H16.8069ZM21.8691 8.86V16H23.7291V8.86H21.8691ZM25.7868 8.86V16H27.5268V11.59H27.5468L28.7868 16H30.8268V8.86H29.0868V13.26H29.0668L27.8668 8.86H25.7868ZM32.9547 8.86V16H34.6947V11.59H34.7147L35.9547 16H37.9947V8.86H36.2547V13.26H36.2347L35.0347 8.86H32.9547ZM40.1227 8.86V16H44.4427V14.48H41.9827V13.06H44.2027V11.6H41.9827V10.38H44.3527V8.86H40.1227ZM48.2327 11.88V10.2H48.5927C48.8727 10.2 49.0727 10.2633 49.1927 10.39C49.3194 10.5167 49.3827 10.73 49.3827 11.03C49.3827 11.2833 49.3194 11.49 49.1927 11.65C49.066 11.8033 48.8694 11.88 48.6027 11.88H48.2327ZM46.3727 8.86V16H48.2327V13.14H48.7227C48.836 13.14 48.9294 13.1567 49.0027 13.19C49.0827 13.2167 49.146 13.27 49.1927 13.35C49.246 13.4233 49.2827 13.5267 49.3027 13.66C49.3227 13.7933 49.3327 13.96 49.3327 14.16V14.64C49.3327 14.7133 49.3327 14.81 49.3327 14.93C49.3394 15.0433 49.346 15.1633 49.3527 15.29C49.366 15.4167 49.3827 15.5433 49.4027 15.67C49.4294 15.7967 49.466 15.9067 49.5127 16H51.4927V15.9C51.4327 15.8667 51.3894 15.8333 51.3627 15.8C51.336 15.76 51.3094 15.72 51.2827 15.68C51.2627 15.64 51.246 15.5833 51.2327 15.51C51.2194 15.4367 51.2094 15.3567 51.2027 15.27C51.196 15.1767 51.1927 15.08 51.1927 14.98C51.1927 14.88 51.1927 14.7833 51.1927 14.69V14.08C51.1927 13.6 51.1094 13.2233 50.9427 12.95C50.776 12.6767 50.4694 12.52 50.0227 12.48V12.46C50.4494 12.3933 50.7594 12.2133 50.9527 11.92C51.146 11.6267 51.2427 11.24 51.2427 10.76C51.2427 10.4867 51.206 10.2333 51.1327 10C51.066 9.76667 50.9527 9.56667 50.7927 9.4C50.6394 9.22667 50.436 9.09333 50.1827 9C49.936 8.90667 49.636 8.86 49.2827 8.86H46.3727Z" fill="white"/>
</g>
</svg>
