<svg width="65" height="25" viewBox="0 0 65 25" fill="none" xmlns="http://www.w3.org/2000/svg">
<mask id="mask0_2_125" style="mask-type:alpha" maskUnits="userSpaceOnUse" x="0" y="0" width="65" height="25">
<path fill-rule="evenodd" clip-rule="evenodd" d="M0 4C0 1.79086 1.79086 0 4 0H61C63.2091 0 65 1.79086 65 4V21C65 23.2091 63.2091 25 61 25H4C1.79086 25 0 23.2091 0 21V4Z" fill="white"/>
</mask>
<g mask="url(#mask0_2_125)">
<rect opacity="0.3" width="65" height="25" fill="black"/>
<path d="M17.4225 8.86V16H21.5725V14.48H19.2825V8.86H17.4225ZM25.0814 8.86H23.2214V13.54C23.2214 14.04 23.2748 14.4567 23.3814 14.79C23.4881 15.1233 23.6414 15.39 23.8414 15.59C24.0481 15.79 24.3014 15.9267 24.6014 16C24.9081 16.0733 25.2548 16.11 25.6414 16.11C26.0348 16.11 26.3814 16.0733 26.6814 16C26.9814 15.9267 27.2314 15.79 27.4314 15.59C27.6381 15.39 27.7948 15.1233 27.9014 14.79C28.0081 14.4567 28.0614 14.04 28.0614 13.54V8.86H26.2014V14.01C26.2014 14.3567 26.1514 14.59 26.0514 14.71C25.9514 14.8233 25.8148 14.88 25.6414 14.88C25.4681 14.88 25.3314 14.8233 25.2314 14.71C25.1314 14.59 25.0814 14.3567 25.0814 14.01V8.86ZM30.1081 8.86V16H31.8481V11.59H31.8681L33.1081 16H35.1481V8.86H33.4081V13.26H33.3881L32.1881 8.86H30.1081ZM40.126 11.03V11.43H41.926V10.98C41.926 10.6333 41.8827 10.3233 41.796 10.05C41.716 9.77 41.5827 9.53333 41.396 9.34C41.216 9.14 40.9794 8.98667 40.686 8.88C40.3927 8.77333 40.036 8.72 39.616 8.72C39.136 8.72 38.7327 8.78667 38.406 8.92C38.0794 9.04667 37.816 9.25667 37.616 9.55C37.416 9.84333 37.2727 10.2267 37.186 10.7C37.106 11.1733 37.066 11.75 37.066 12.43C37.066 13.0967 37.0994 13.6667 37.166 14.14C37.2394 14.6067 37.3694 14.99 37.556 15.29C37.7427 15.5833 38.0027 15.7933 38.336 15.92C38.6694 16.0467 39.096 16.11 39.616 16.11C39.916 16.11 40.206 16.0767 40.486 16.01C40.7727 15.95 41.026 15.83 41.246 15.65C41.466 15.4633 41.6427 15.21 41.776 14.89C41.9094 14.57 41.976 14.16 41.976 13.66V13.13H40.176C40.176 13.47 40.166 13.7533 40.146 13.98C40.1327 14.2 40.106 14.3767 40.066 14.51C40.026 14.6433 39.9694 14.74 39.896 14.8C39.8227 14.8533 39.7294 14.88 39.616 14.88C39.476 14.88 39.3627 14.8433 39.276 14.77C39.196 14.6967 39.1327 14.5667 39.086 14.38C39.046 14.1933 39.0194 13.9433 39.006 13.63C38.9927 13.31 38.986 12.91 38.986 12.43C38.986 11.95 38.9927 11.5533 39.006 11.24C39.0194 10.92 39.046 10.6667 39.086 10.48C39.1327 10.2933 39.196 10.1633 39.276 10.09C39.3627 10.0167 39.476 9.98 39.616 9.98C39.796 9.98 39.926 10.0533 40.006 10.2C40.086 10.3467 40.126 10.6233 40.126 11.03ZM43.8971 8.86V16H45.7571V13.06H46.8971V16H48.7571V8.86H46.8971V11.48H45.7571V8.86H43.8971Z" fill="white"/>
</g>
</svg>
