<svg width="65" height="25" viewBox="0 0 65 25" fill="none" xmlns="http://www.w3.org/2000/svg">
<mask id="mask0_2_289" style="mask-type:alpha" maskUnits="userSpaceOnUse" x="0" y="0" width="65" height="25">
<path fill-rule="evenodd" clip-rule="evenodd" d="M0 4C0 1.79086 1.79086 0 4 0H61C63.2091 0 65 1.79086 65 4V21C65 23.2091 63.2091 25 61 25H4C1.79086 25 0 23.2091 0 21V4Z" fill="white"/>
</mask>
<g mask="url(#mask0_2_289)">
<rect width="65" height="25" fill="black"/>
<path d="M16.6136 10.92H18.3536C18.3536 10.1533 18.1703 9.59667 17.8036 9.25C17.4436 8.89667 16.857 8.72 16.0436 8.72C15.257 8.72 14.6703 8.91 14.2836 9.29C13.897 9.67 13.7036 10.2233 13.7036 10.95C13.7036 11.37 13.7736 11.71 13.9136 11.97C14.0603 12.23 14.2403 12.44 14.4536 12.6C14.6736 12.76 14.9103 12.89 15.1636 12.99C15.417 13.09 15.6503 13.19 15.8636 13.29C16.0836 13.3833 16.2636 13.5 16.4036 13.64C16.5503 13.7733 16.6236 13.9567 16.6236 14.19C16.6236 14.3833 16.5703 14.5467 16.4636 14.68C16.3636 14.8133 16.217 14.88 16.0236 14.88C15.8436 14.88 15.697 14.82 15.5836 14.7C15.4703 14.5733 15.4136 14.3567 15.4136 14.05V13.88H13.6136V14.13C13.6136 14.5033 13.667 14.8167 13.7736 15.07C13.8803 15.3233 14.0336 15.53 14.2336 15.69C14.4403 15.8433 14.6903 15.95 14.9836 16.01C15.2836 16.0767 15.627 16.11 16.0136 16.11C16.8336 16.11 17.4603 15.94 17.8936 15.6C18.327 15.2533 18.5436 14.7 18.5436 13.94C18.5436 13.5067 18.467 13.1567 18.3136 12.89C18.167 12.6167 17.9803 12.3967 17.7536 12.23C17.527 12.0633 17.2836 11.93 17.0236 11.83C16.7636 11.7233 16.5203 11.62 16.2936 11.52C16.067 11.42 15.877 11.3033 15.7236 11.17C15.577 11.03 15.5036 10.8433 15.5036 10.61C15.5036 10.45 15.5503 10.3067 15.6436 10.18C15.737 10.0467 15.8836 9.98 16.0836 9.98C16.2636 9.98 16.397 10.0567 16.4836 10.21C16.5703 10.3567 16.6136 10.5367 16.6136 10.75V10.92ZM23.0647 8.86L22.3947 13.8H22.3747L21.8147 8.86H20.0147L21.2347 16H23.2747L23.8947 11.2H23.9147L24.5347 16H26.5747L27.7947 8.86H25.9947L25.4947 13.8H25.4747L24.7447 8.86H23.0647ZM29.4879 8.86V16H33.8079V14.48H31.3479V13.06H33.5679V11.6H31.3479V10.38H33.7179V8.86H29.4879ZM35.7379 8.86V16H40.0579V14.48H37.5979V13.06H39.8179V11.6H37.5979V10.38H39.9679V8.86H35.7379ZM42.9279 10.44V16H44.7879V10.44H46.1879V8.86H41.5479V10.44H42.9279ZM50.6371 10.92H52.3771C52.3771 10.1533 52.1938 9.59667 51.8271 9.25C51.4671 8.89667 50.8804 8.72 50.0671 8.72C49.2804 8.72 48.6938 8.91 48.3071 9.29C47.9204 9.67 47.7271 10.2233 47.7271 10.95C47.7271 11.37 47.7971 11.71 47.9371 11.97C48.0838 12.23 48.2638 12.44 48.4771 12.6C48.6971 12.76 48.9338 12.89 49.1871 12.99C49.4404 13.09 49.6738 13.19 49.8871 13.29C50.1071 13.3833 50.2871 13.5 50.4271 13.64C50.5738 13.7733 50.6471 13.9567 50.6471 14.19C50.6471 14.3833 50.5938 14.5467 50.4871 14.68C50.3871 14.8133 50.2404 14.88 50.0471 14.88C49.8671 14.88 49.7204 14.82 49.6071 14.7C49.4938 14.5733 49.4371 14.3567 49.4371 14.05V13.88H47.6371V14.13C47.6371 14.5033 47.6904 14.8167 47.7971 15.07C47.9038 15.3233 48.0571 15.53 48.2571 15.69C48.4638 15.8433 48.7138 15.95 49.0071 16.01C49.3071 16.0767 49.6504 16.11 50.0371 16.11C50.8571 16.11 51.4838 15.94 51.9171 15.6C52.3504 15.2533 52.5671 14.7 52.5671 13.94C52.5671 13.5067 52.4904 13.1567 52.3371 12.89C52.1904 12.6167 52.0038 12.3967 51.7771 12.23C51.5504 12.0633 51.3071 11.93 51.0471 11.83C50.7871 11.7233 50.5438 11.62 50.3171 11.52C50.0904 11.42 49.9004 11.3033 49.7471 11.17C49.6004 11.03 49.5271 10.8433 49.5271 10.61C49.5271 10.45 49.5738 10.3067 49.6671 10.18C49.7604 10.0467 49.9071 9.98 50.1071 9.98C50.2871 9.98 50.4204 10.0567 50.5071 10.21C50.5938 10.3567 50.6371 10.5367 50.6371 10.75V10.92Z" fill="white"/>
</g>
</svg>
